<?xml version="1.0" standalone="no"?>
<!DOCTYPE svg PUBLIC "-//W3C//DTD SVG 20010904//EN"
 "http://www.w3.org/TR/2001/REC-SVG-20010904/DTD/svg10.dtd">
<svg version="1.0" xmlns="http://www.w3.org/2000/svg"
 width="80.000000pt" height="80.000000pt" viewBox="0 0 80.000000 80.000000"
 preserveAspectRatio="xMidYMid meet">

<g transform="translate(0.000000,80.000000) scale(0.100000,-0.100000)"
fill="#000000" stroke="none">
<path d="M320 790 c-113 -24 -223 -108 -273 -210 -120 -245 23 -524 291 -571
164 -29 342 62 415 211 104 214 9 466 -208 549 -62 23 -165 33 -225 21z m186
-107 c67 -23 154 -110 177 -177 52 -152 -14 -309 -158 -377 -70 -34 -155 -38
-220 -12 -22 9 -61 16 -87 16 -27 0 -48 1 -48 3 0 1 4 14 9 28 8 19 6 28 -6
38 -9 7 -29 40 -45 73 -33 70 -37 142 -12 225 20 68 107 159 174 183 60 21
155 21 216 0z"/>
<path d="M170 460 c0 -5 20 -10 45 -10 25 0 45 -3 45 -6 0 -3 -22 -31 -50 -63
-27 -32 -50 -61 -50 -64 0 -4 32 -7 70 -7 40 0 70 4 70 10 0 6 -20 10 -45 10
-25 0 -45 4 -45 9 0 4 17 28 38 52 73 86 73 79 -7 79 -41 0 -71 -4 -71 -10z"/>
<path d="M480 390 c0 -47 4 -80 10 -80 6 0 10 33 10 80 0 47 -4 80 -10 80 -6
0 -10 -33 -10 -80z"/>
<path d="M326 418 c-36 -51 -5 -98 67 -102 l47 -4 0 63 0 62 -49 2 c-41 1 -52
-3 -65 -21z m84 -13 c16 -19 9 -45 -16 -62 -19 -12 -24 -11 -45 6 -21 16 -22
22 -11 45 13 29 52 36 72 11z"/>
<path d="M544 416 c-21 -33 -15 -65 17 -89 43 -31 99 -2 99 52 0 59 -84 85
-116 37z m86 -11 c16 -19 10 -45 -15 -61 -39 -26 -86 31 -53 64 16 16 53 15
68 -3z"/>
</g>
</svg>
